<svg width="33" height="26" viewBox="0 0 33 26" fill="#ffffff" xmlns="http://www.w3.org/2000/svg">
<path d="M15.871 2.31897L6.83034 13.8312" stroke="#ffffff" stroke-width="2"/>
<path d="M22.2666 7.34155L13.226 18.8537" stroke="#ffffff" stroke-width="2"/>
<path d="M19.0871 13.0094L30.2392 21.7673C30.7467 22.1659 30.8351 22.9005 30.4365 23.4081C30.0379 23.9156 29.3033 24.004 28.7957 23.6054L17.6436 14.8475L19.0871 13.0094Z" fill="#ffffff" stroke="#ffffff" stroke-width="2"/>
<rect x="15.5947" y="0.797446" width="10.9424" height="1.13588" rx="0.567942" transform="rotate(38.1429 15.5947 0.797446)" fill="#ffffff" stroke="#ffffff" stroke-width="1.13588"/>
<rect x="5.83613" y="12.7244" width="10.9424" height="1.13588" rx="0.567942" transform="rotate(38.1429 5.83613 12.7244)" fill="#ffffff" stroke="#ffffff" stroke-width="1.13588"/>
<path d="M1 22.7698C1 22.7233 1.03773 22.6855 1.08428 22.6855H10.8428C10.8893 22.6855 10.9271 22.7233 10.9271 22.7698C10.9271 22.8164 10.8893 22.8541 10.8428 22.8541H1.08428C1.03773 22.8541 1 22.8164 1 22.7698Z" stroke="#ffffff" stroke-width="1.08428"/>
</svg>
