<svg width="27" height="20" viewBox="0 0 27 20" fill="none" xmlns="http://www.w3.org/2000/svg">
<path fill-rule="evenodd" clip-rule="evenodd" d="M13 9.18752C12.9977 10.0124 13.2033 10.8262 13.6 11.5625C14.5594 13.3621 16.5207 14.4992 18.6667 14.5C19.5466 14.5022 20.4146 14.3094 21.2 13.9375L25 15.125L23.7333 11.5625C24.13 10.8262 24.3356 10.0124 24.3333 9.18752C24.3325 7.1757 23.1196 5.33692 21.2 4.43752C20.4146 4.0656 19.5466 3.87287 18.6667 3.87502H18.3333C15.4561 4.02383 13.1587 6.17764 13 8.87502V9.18752Z" fill="#40C4B0" stroke="#40C4B0" stroke-linecap="round" stroke-linejoin="round"/>
<path fill-rule="evenodd" clip-rule="evenodd" d="M18.375 9.58336C18.378 10.6832 18.1082 11.7683 17.5875 12.75C16.3283 15.1495 13.754 16.6657 10.9375 16.6667C9.78261 16.6696 8.64335 16.4126 7.6125 15.9167L2.625 17.5L4.2875 12.75C3.76681 11.7683 3.49699 10.6832 3.5 9.58336C3.50109 6.90093 5.09309 4.44922 7.6125 3.25002C8.64335 2.75413 9.78261 2.49716 10.9375 2.50002H11.375C15.1513 2.69844 18.1667 5.57018 18.375 9.16669V9.58336Z" fill="white" stroke="#40C4B0" stroke-linecap="round" stroke-linejoin="round"/>
<circle cx="8" cy="10" r="1" fill="#40C4B0"/>
<circle cx="11" cy="10" r="1" fill="#40C4B0"/>
<circle cx="14" cy="10" r="1" fill="#40C4B0"/>
</svg>
